<svg width="1280" height="720" xmlns="http://www.w3.org/2000/svg" xmlns:xlink="http://www.w3.org/1999/xlink" overflow="hidden"><g><rect x="0" y="0" width="1280" height="720" fill="#FFFFFF"/><path d="M774.057 290.54 867.106 143.916" stroke="#000000" stroke-width="2" stroke-miterlimit="8" stroke-dasharray="8 6" fill="none" fill-rule="evenodd"/><path d="M1-2.31456e-07 1.0001 446.927-0.999897 446.927-1 2.31456e-07ZM4.0001 445.594 0.000104987 453.594-3.9999 445.594Z" transform="matrix(1 0 0 -1 338 586.594)"/><path d="M336 586 935.415 586 935.415 588 336 588ZM934.082 583 942.082 587 934.082 591Z"/><path d="M455.959 437.077C453.736 432.815 455.389 427.557 459.651 425.334L529.332 388.987C533.594 386.764 538.852 388.417 541.075 392.679L557.176 423.548C559.4 427.81 557.747 433.068 553.484 435.291L483.803 471.637C479.541 473.861 474.284 472.208 472.061 467.945Z" stroke="#042433" stroke-width="2" stroke-miterlimit="8" fill="none" fill-rule="evenodd"/><path d="M505.944 430.391 640 360.466" stroke="#000000" stroke-width="2" stroke-miterlimit="8" fill="none" fill-rule="evenodd"/><path d="M640 360.466 774.253 290.438" stroke="#000000" stroke-width="2" stroke-miterlimit="8" fill="none" fill-rule="evenodd"/><path d="M505.481 429.505 586.707 387.136 587.632 388.91 506.406 431.278ZM584.138 385.093 593.081 384.94 587.837 392.186Z" fill="#00B0F0"/><path d="M1-1.38873e-06 1.0001 68.9323-0.999904 68.9323-1 1.38873e-06ZM4.00009 67.5989 0.000104987 75.5989-3.99991 67.599Z" fill="#E97132" transform="matrix(0.886631 -0.462478 -0.462478 -0.886631 505.944 430.391)"/><path d="M1-1.38873e-06 1.0001 68.9323-0.999904 68.9323-1 1.38873e-06ZM4.00009 67.5989 0.000104987 75.5989-3.99991 67.599Z" fill="#E97132" transform="matrix(0.886631 -0.462478 -0.462478 -0.886631 640 360.466)"/><path d="M639.538 359.579 700.655 327.699 701.58 329.473 640.463 361.352ZM698.086 325.656 707.029 325.503 701.786 332.749Z" fill="#00B0F0"/><path d="M774.253 290.438 908.114 220.614" stroke="#000000" stroke-width="2" stroke-miterlimit="8" stroke-dasharray="8 6" fill="none" fill-rule="evenodd"/><path d="M733.937 321.832C729.878 319.256 728.676 313.878 731.252 309.819L773.362 243.462C775.938 239.403 781.316 238.201 785.375 240.777L814.771 259.432C818.83 262.007 820.032 267.386 817.456 271.445L775.346 337.801C772.77 341.86 767.392 343.063 763.333 340.487Z" stroke="#042433" stroke-width="2" stroke-miterlimit="8" fill="none" fill-rule="evenodd"/><path d="M773.213 290.004 822.182 212.84 823.87 213.912 774.901 291.076ZM818.934 212.358 826.598 207.747 825.689 216.645Z" fill="#00B0F0"/><path d="M1-1.38873e-06 1.0001 68.9323-0.999904 68.9323-1 1.38873e-06ZM4.00009 67.5989 0.000104987 75.5989-3.99991 67.599Z" fill="#E97132" transform="matrix(0.53582 -0.844332 -0.844332 -0.53582 774.253 290.438)"/><path d="M469.437 345.988 591.672 282.228 592.596 284.002 470.362 347.761ZM472.931 349.804 463.988 349.957 469.231 342.711ZM589.102 280.185 598.045 280.032 592.802 287.278Z" fill="#A02B93"/><path d="M603.493 276.062 725.728 212.303 726.653 214.076 604.418 277.835ZM606.988 279.878 598.045 280.032 603.288 272.785ZM723.159 210.259 732.102 210.106 726.858 217.352Z" fill="#A02B93"/><path d="M506 430 657.198 430" stroke="#000000" stroke-width="2" stroke-miterlimit="8" stroke-dasharray="8 6" fill="none" fill-rule="evenodd"/><text fill="#A02B93" font-family="Cambria Math,Cambria Math_MSFontService,sans-serif" font-weight="400" font-size="24" transform="matrix(0.887222 -0.461342 0.461342 0.887222 526.005 307)">洧녳</text><text fill="#A02B93" font-family="Cambria Math,Cambria Math_MSFontService,sans-serif" font-weight="400" font-size="18" transform="matrix(0.887222 -0.461342 0.461342 0.887222 534.92 308)">洧</text><text fill="#A02B93" font-family="Cambria Math,Cambria Math_MSFontService,sans-serif" font-weight="400" font-size="24" transform="matrix(0.877962 -0.47873 0.47873 0.877962 649.749 239)">洧녳</text><text fill="#A02B93" font-family="Cambria Math,Cambria Math_MSFontService,sans-serif" font-weight="400" font-size="18" transform="matrix(0.877962 -0.47873 0.47873 0.877962 657.409 240)">洧녭</text><text fill="#E97132" font-family="Cambria Math,Cambria Math_MSFontService,sans-serif" font-weight="400" font-size="24" transform="matrix(0.878089 -0.478497 0.478497 0.878089 446.002 407)">洧냧</text><text fill="#E97132" font-family="Cambria Math,Cambria Math_MSFontService,sans-serif" font-weight="400" font-size="18" transform="matrix(0.878089 -0.478497 0.478497 0.878089 457.11 407)">洧</text><text fill="#E97132" font-family="Cambria Math,Cambria Math_MSFontService,sans-serif" font-weight="400" font-size="18" transform="matrix(0.878089 -0.478497 0.478497 0.878089 465.791 402)">,</text><text fill="#E97132" font-family="Cambria Math,Cambria Math_MSFontService,sans-serif" font-weight="400" font-size="18" transform="matrix(0.878089 -0.478497 0.478497 0.878089 469.011 400)">洧녽</text><text fill="#00B0F0" font-family="Cambria Math,Cambria Math_MSFontService,sans-serif" font-weight="400" font-size="24" transform="matrix(0.882233 -0.470814 0.470814 0.882233 552.597 388)">洧냧</text><text fill="#00B0F0" font-family="Cambria Math,Cambria Math_MSFontService,sans-serif" font-weight="400" font-size="18" transform="matrix(0.882233 -0.470814 0.470814 0.882233 563.709 387)">洧</text><text fill="#00B0F0" font-family="Cambria Math,Cambria Math_MSFontService,sans-serif" font-weight="400" font-size="18" transform="matrix(0.882233 -0.470814 0.470814 0.882233 572.431 383)">,</text><text fill="#00B0F0" font-family="Cambria Math,Cambria Math_MSFontService,sans-serif" font-weight="400" font-size="18" transform="matrix(0.882233 -0.470814 0.470814 0.882233 575.666 381)">洧논</text><path d="M595.13 387.366 601.851 386.328 602.111 389.738C606.49 393.199 609.53 399.909 610.099 407.368 609.53 399.909 606.49 393.199 602.111 389.738L602.371 393.148Z" fill="#00B050" fill-rule="evenodd"/><path d="M610.098 407.368C610.983 418.978 605.717 428.845 598.335 429.408L598.335 429.408C605.717 428.845 610.983 418.978 610.098 407.368Z" fill="#008D40" fill-rule="evenodd"/><path d="M610.098 407.368C609.53 399.909 606.49 393.199 602.111 389.738L602.371 393.148 595.13 387.366 601.851 386.328 602.111 389.738C606.49 393.199 609.53 399.909 610.099 407.368L610.098 407.368C610.983 418.978 605.717 428.845 598.335 429.408L598.335 429.408C605.717 428.845 610.983 418.978 610.098 407.368" stroke="#00B050" stroke-width="2" stroke-miterlimit="8" fill="none" fill-rule="evenodd"/><text fill="#00B050" font-family="Cambria Math,Cambria Math_MSFontService,sans-serif" font-weight="400" font-size="24" transform="translate(613.75 419)">洧랩</text><path d="M658.441 355.147 666.008 358.14 660.692 360.838C663.335 371.621 658.859 382.34 649.828 386.848 658.711 382.266 663.075 371.636 660.457 360.957L655.142 363.654Z" fill="#00B050" fill-rule="evenodd"/><path d="M649.711 386.908C638.863 392.414 625.131 387.148 619.039 375.145L619.274 375.026C625.365 387.029 639.098 392.295 649.946 386.789Z" fill="#008D40" fill-rule="evenodd"/><path d="M649.828 386.848C658.711 382.266 663.075 371.636 660.457 360.957L655.142 363.654 658.441 355.147 666.008 358.14 660.692 360.838C663.322 371.569 658.902 382.243 649.946 386.789L649.711 386.908C638.863 392.414 625.131 387.148 619.039 375.145L619.274 375.026C625.365 387.029 639.098 392.295 649.946 386.789" stroke="#00B050" stroke-width="2" stroke-miterlimit="8" fill="none" fill-rule="evenodd"/><text fill="#00B050" font-family="Cambria Math,Cambria Math_MSFontService,sans-serif" font-weight="400" font-size="24" transform="translate(661.849 391)">洧랪</text><path d="M638 360C638 358.895 638.895 358 640 358 641.105 358 642 358.895 642 360 642 361.105 641.105 362 640 362 638.895 362 638 361.105 638 360Z" stroke="#FF0000" stroke-width="2" stroke-miterlimit="8" fill="#FF0000" fill-rule="evenodd"/><text fill="#FF0000" font-family="Cambria Math,Cambria Math_MSFontService,sans-serif" font-weight="400" font-size="24" transform="translate(638.571 338)">洧냤</text><text fill="#FF0000" font-family="Cambria Math,Cambria Math_MSFontService,sans-serif" font-weight="400" font-size="18" transform="translate(650.471 343)">洧녮</text><text fill="#E97132" font-family="Cambria Math,Cambria Math_MSFontService,sans-serif" font-weight="400" font-size="24" transform="matrix(0.88512 -0.465363 0.465363 0.88512 618.608 304)">洧녺</text><text fill="#E97132" font-family="Cambria Math,Cambria Math_MSFontService,sans-serif" font-weight="400" font-size="18" transform="matrix(0.88512 -0.465363 0.465363 0.88512 631.15 303)">洧녽</text><text fill="#00B0F0" font-family="Cambria Math,Cambria Math_MSFontService,sans-serif" font-weight="400" font-size="24" transform="matrix(0.886922 -0.461918 0.461918 0.886922 694.207 354)">洧녺</text><text fill="#00B0F0" font-family="Cambria Math,Cambria Math_MSFontService,sans-serif" font-weight="400" font-size="18" transform="matrix(0.886922 -0.461918 0.461918 0.886922 706.753 353)">洧논</text><text fill="#E97132" font-family="Cambria Math,Cambria Math_MSFontService,sans-serif" font-weight="400" font-size="24" transform="matrix(0.533483 -0.845811 0.845811 0.533483 702.125 291)">洧냧</text><text fill="#E97132" font-family="Cambria Math,Cambria Math_MSFontService,sans-serif" font-weight="400" font-size="18" transform="matrix(0.533483 -0.845811 0.845811 0.533483 712.693 283)">f</text><text fill="#E97132" font-family="Cambria Math,Cambria Math_MSFontService,sans-serif" font-weight="400" font-size="18" transform="matrix(0.533483 -0.845811 0.845811 0.533483 715.983 278)">,</text><text fill="#E97132" font-family="Cambria Math,Cambria Math_MSFontService,sans-serif" font-weight="400" font-size="18" transform="matrix(0.533483 -0.845811 0.845811 0.533483 717.939 275)">洧녽</text><text fill="#00B0F0" font-family="Cambria Math,Cambria Math_MSFontService,sans-serif" font-weight="400" font-size="24" transform="matrix(0.533446 -0.845834 0.845834 0.533446 798.503 228)">洧냧</text><text fill="#00B0F0" font-family="Cambria Math,Cambria Math_MSFontService,sans-serif" font-weight="400" font-size="18" transform="matrix(0.533446 -0.845834 0.845834 0.533446 809.07 220)">f</text><text fill="#00B0F0" font-family="Cambria Math,Cambria Math_MSFontService,sans-serif" font-weight="400" font-size="18" transform="matrix(0.533446 -0.845834 0.845834 0.533446 812.359 215)">,</text><text fill="#00B0F0" font-family="Cambria Math,Cambria Math_MSFontService,sans-serif" font-weight="400" font-size="18" transform="matrix(0.533446 -0.845834 0.845834 0.533446 814.315 212)">洧논</text><path d="M859.895 219.772C856.677 207.918 849.135 198.85 841.559 197.725L842.272 200.352 837.5 197.94 840.846 195.098 841.559 197.725C849.135 198.85 856.677 207.918 859.895 219.772Z" fill="#00B050" fill-rule="evenodd"/><path d="M851.612 249.93C860.083 247.631 863.792 234.128 859.895 219.772 863.792 234.128 860.083 247.631 851.612 249.93Z" fill="#008D40" fill-rule="evenodd"/><path d="M859.895 219.772C856.677 207.918 849.135 198.85 841.559 197.725L842.272 200.352 837.5 197.94 840.846 195.098 841.559 197.725C849.135 198.85 856.677 207.918 859.895 219.772L859.895 219.772C863.792 234.128 860.083 247.631 851.612 249.93L851.612 249.93C860.083 247.631 863.792 234.128 859.895 219.772" stroke="#00B050" stroke-width="2" stroke-miterlimit="8" fill="none" fill-rule="evenodd"/><text fill="#00B050" font-family="Cambria Math,Cambria Math_MSFontService,sans-serif" font-weight="400" font-size="24" transform="translate(858.813 215)">洧</text><text font-family="Cambria Math,Cambria Math_MSFontService,sans-serif" font-weight="400" font-size="24" transform="translate(914.11 614)">洧녦</text><text font-family="Cambria Math,Cambria Math_MSFontService,sans-serif" font-weight="400" font-size="24" transform="translate(320.627 172)">Y</text><text font-family="Cambria Math,Cambria Math_MSFontService,sans-serif" font-weight="400" font-size="24" transform="translate(320.231 606)">洧녝</text><path d="M640 363 640 587.124" stroke="#FF0000" stroke-width="2" stroke-miterlimit="8" stroke-dasharray="2 2" fill="none" fill-rule="evenodd"/><path d="M0 0 299.996 0.000104987" stroke="#FF0000" stroke-width="2" stroke-miterlimit="8" stroke-dasharray="2 2" fill="none" fill-rule="evenodd" transform="matrix(-1 0 0 1 635.996 360)"/><text fill="#FF0000" font-family="Cambria Math,Cambria Math_MSFontService,sans-serif" font-weight="400" font-size="24" transform="translate(629.458 607)">洧녷</text><text fill="#FF0000" font-family="Cambria Math,Cambria Math_MSFontService,sans-serif" font-weight="400" font-size="18" transform="translate(641.851 612)">洧논</text><text fill="#FF0000" font-family="Cambria Math,Cambria Math_MSFontService,sans-serif" font-weight="400" font-size="24" transform="translate(304.904 365)">洧녷</text><text fill="#FF0000" font-family="Cambria Math,Cambria Math_MSFontService,sans-serif" font-weight="400" font-size="18" transform="translate(317.297 370)">洧녽</text><path d="M504 430.5C504 429.119 504.895 428 506 428 507.105 428 508 429.119 508 430.5 508 431.881 507.105 433 506 433 504.895 433 504 431.881 504 430.5Z" stroke="#000000" stroke-width="2" stroke-miterlimit="8" fill-rule="evenodd"/><path d="M772 290.5C772 289.119 772.895 288 774 288 775.105 288 776 289.119 776 290.5 776 291.881 775.105 293 774 293 772.895 293 772 291.881 772 290.5Z" stroke="#000000" stroke-width="2" stroke-miterlimit="8" fill-rule="evenodd"/><path d="M638 586.5C638 585.119 638.895 584 640 584 641.105 584 642 585.119 642 586.5 642 587.881 641.105 589 640 589 638.895 589 638 587.881 638 586.5Z" stroke="#FF0000" stroke-width="2" stroke-miterlimit="8" fill="#FF0000" fill-rule="evenodd"/><path d="M336 360C336 358.895 336.895 358 338 358 339.105 358 340 358.895 340 360 340 361.105 339.105 362 338 362 336.895 362 336 361.105 336 360Z" stroke="#FF0000" stroke-width="2" stroke-miterlimit="8" fill="#FF0000" fill-rule="evenodd"/><text font-family="Verdana,Verdana_MSFontService,sans-serif" font-weight="700" font-size="24" transform="translate(332.218 655)">Figure:</text><text font-family="Verdana,Verdana_MSFontService,sans-serif" font-weight="400" font-size="24" transform="translate(436.218 655)">Free</text><text font-family="Verdana,Verdana_MSFontService,sans-serif" font-weight="400" font-size="24" transform="translate(488.884 655)">-</text><text font-family="Verdana,Verdana_MSFontService,sans-serif" font-weight="400" font-size="24" transform="translate(499.718 655)">body diagram of</text><text font-family="Verdana,Verdana_MSFontService,sans-serif" font-weight="400" font-size="24" transform="translate(705.298 655)">the</text><text font-family="Verdana,Verdana_MSFontService,sans-serif" font-weight="400" font-size="24" transform="translate(752.798 655)">bicycle model.</text><text font-family="Verdana,Verdana_MSFontService,sans-serif" font-style="italic" font-weight="400" font-size="16" transform="translate(688.551 684)">Inspired from Figure 1 in [1].</text></g></svg>